Trimmed_Nord000004_forces_filt12Hz.mot
version=1
nRows=22
nColumns=28
inDegrees=yes
endheader
time	R_ground_force_vx	R_ground_force_vy	R_ground_force_vz	R_ground_force_px	R_ground_force_py	R_ground_force_pz	R_ground_torque_x	R_ground_torque_y	R_ground_torque_z	L_ground_force_vx	L_ground_force_vy	L_ground_force_vz	L_ground_force_px	L_ground_force_py	L_ground_force_pz	L_ground_torque_x	L_ground_torque_y	L_ground_torque_z	3_ground_force_vx	3_ground_force_vy	3_ground_force_vz	3_ground_force_px	3_ground_force_py	3_ground_force_pz	3_ground_torque_x	3_ground_torque_y	3_ground_torque_z	
3.757000	  0.000000	  0.000000	  0.000000	  0.000000	  0.000000	  0.000000	  0.000000	  0.000000	  0.000000	  3.801062	455.473845	 39.432510	 -0.489901	  0.006000	 -1.071024	  0.000000	 13.221880	  0.000000	 -3.551853	478.985138	-27.264920	 -0.509674	  0.006000	 -1.341061	  0.000000	 -9.114246	  0.000000
3.757500	  0.000000	  0.000000	  0.000000	  0.000000	  0.000000	  0.000000	  0.000000	  0.000000	  0.000000	  3.807416	455.368497	 39.474855	 -0.489935	  0.006000	 -1.071041	  0.000000	 13.235863	  0.000000	 -3.606318	479.033591	-27.282779	 -0.509611	  0.006000	 -1.341039	  0.000000	 -9.110113	  0.000000
3.758000	  0.000000	  0.000000	  0.000000	  0.000000	  0.000000	  0.000000	  0.000000	  0.000000	  0.000000	  3.813510	455.264240	 39.516627	 -0.489968	  0.006000	 -1.071058	  0.000000	 13.249706	  0.000000	 -3.660714	479.081044	-27.301485	 -0.509549	  0.006000	 -1.341016	  0.000000	 -9.106348	  0.000000
3.758500	  0.000000	  0.000000	  0.000000	  0.000000	  0.000000	  0.000000	  0.000000	  0.000000	  0.000000	  3.819350	455.161095	 39.557822	 -0.490001	  0.006000	 -1.071074	  0.000000	 13.263408	  0.000000	 -3.715030	479.127502	-27.321039	 -0.509487	  0.006000	 -1.340993	  0.000000	 -9.102952	  0.000000
3.759000	  0.000000	  0.000000	  0.000000	  0.000000	  0.000000	  0.000000	  0.000000	  0.000000	  0.000000	  3.824945	455.059083	 39.598434	 -0.490032	  0.006000	 -1.071090	  0.000000	 13.276968	  0.000000	 -3.769255	479.172973	-27.341444	 -0.509426	  0.006000	 -1.340970	  0.000000	 -9.099924	  0.000000
3.759500	  0.000000	  0.000000	  0.000000	  0.000000	  0.000000	  0.000000	  0.000000	  0.000000	  0.000000	  3.830303	454.958220	 39.638459	 -0.490064	  0.006000	 -1.071106	  0.000000	 13.290385	  0.000000	 -3.823375	479.217467	-27.362699	 -0.509365	  0.006000	 -1.340946	  0.000000	 -9.097266	  0.000000
3.760000	  0.000000	  0.000000	  0.000000	  0.000000	  0.000000	  0.000000	  0.000000	  0.000000	  0.000000	  3.835432	454.858524	 39.677895	 -0.490095	  0.006000	 -1.071122	  0.000000	 13.303661	  0.000000	 -3.877380	479.260993	-27.384802	 -0.509305	  0.006000	 -1.340922	  0.000000	 -9.094976	  0.000000
3.760500	  0.000000	  0.000000	  0.000000	  0.000000	  0.000000	  0.000000	  0.000000	  0.000000	  0.000000	  3.840341	454.760012	 39.716741	 -0.490125	  0.006000	 -1.071137	  0.000000	 13.316795	  0.000000	 -3.931256	479.303562	-27.407751	 -0.509245	  0.006000	 -1.340898	  0.000000	 -9.093052	  0.000000
3.761000	  0.000000	  0.000000	  0.000000	  0.000000	  0.000000	  0.000000	  0.000000	  0.000000	  0.000000	  3.845039	454.662699	 39.754996	 -0.490154	  0.006000	 -1.071152	  0.000000	 13.329786	  0.000000	 -3.984992	479.345186	-27.431541	 -0.509186	  0.006000	 -1.340873	  0.000000	 -9.091494	  0.000000
3.761500	  0.000000	  0.000000	  0.000000	  0.000000	  0.000000	  0.000000	  0.000000	  0.000000	  0.000000	  3.849534	454.566598	 39.792660	 -0.490183	  0.006000	 -1.071167	  0.000000	 13.342637	  0.000000	 -4.038574	479.385878	-27.456166	 -0.509128	  0.006000	 -1.340848	  0.000000	 -9.090298	  0.000000
3.762000	  0.000000	  0.000000	  0.000000	  0.000000	  0.000000	  0.000000	  0.000000	  0.000000	  0.000000	  3.853837	454.471723	 39.829736	 -0.490212	  0.006000	 -1.071181	  0.000000	 13.355348	  0.000000	 -4.091992	479.425651	-27.481618	 -0.509070	  0.006000	 -1.340823	  0.000000	 -9.089462	  0.000000
3.762500	  0.000000	  0.000000	  0.000000	  0.000000	  0.000000	  0.000000	  0.000000	  0.000000	  0.000000	  3.857956	454.378086	 39.866227	 -0.490240	  0.006000	 -1.071195	  0.000000	 13.367920	  0.000000	 -4.145234	479.464521	-27.507889	 -0.509012	  0.006000	 -1.340798	  0.000000	 -9.088982	  0.000000
3.763000	  0.000000	  0.000000	  0.000000	  0.000000	  0.000000	  0.000000	  0.000000	  0.000000	  0.000000	  3.861902	454.285696	 39.902136	 -0.490267	  0.006000	 -1.071208	  0.000000	 13.380356	  0.000000	 -4.198290	479.502502	-27.534967	 -0.508955	  0.006000	 -1.340773	  0.000000	 -9.088854	  0.000000
3.763500	  0.000000	  0.000000	  0.000000	  0.000000	  0.000000	  0.000000	  0.000000	  0.000000	  0.000000	  3.865683	454.194563	 39.937469	 -0.490294	  0.006000	 -1.071221	  0.000000	 13.392656	  0.000000	 -4.251152	479.539611	-27.562840	 -0.508899	  0.006000	 -1.340747	  0.000000	 -9.089073	  0.000000
3.764000	  0.000000	  0.000000	  0.000000	  0.000000	  0.000000	  0.000000	  0.000000	  0.000000	  0.000000	  3.869309	454.104696	 39.972231	 -0.490320	  0.006000	 -1.071234	  0.000000	 13.404824	  0.000000	 -4.303810	479.575862	-27.591492	 -0.508843	  0.006000	 -1.340721	  0.000000	 -9.089636	  0.000000
3.764500	  0.000000	  0.000000	  0.000000	  0.000000	  0.000000	  0.000000	  0.000000	  0.000000	  0.000000	  3.872790	454.016102	 40.006429	 -0.490346	  0.006000	 -1.071247	  0.000000	 13.416861	  0.000000	 -4.356260	479.611273	-27.620908	 -0.508788	  0.006000	 -1.340695	  0.000000	 -9.090537	  0.000000
3.765000	  0.000000	  0.000000	  0.000000	  0.000000	  0.000000	  0.000000	  0.000000	  0.000000	  0.000000	  3.876137	453.928790	 40.040071	 -0.490372	  0.006000	 -1.071259	  0.000000	 13.428770	  0.000000	 -4.408495	479.645860	-27.651070	 -0.508733	  0.006000	 -1.340669	  0.000000	 -9.091771	  0.000000
3.765500	  0.000000	  0.000000	  0.000000	  0.000000	  0.000000	  0.000000	  0.000000	  0.000000	  0.000000	  3.879360	453.842764	 40.073167	 -0.490397	  0.006000	 -1.071271	  0.000000	 13.440553	  0.000000	 -4.460511	479.679642	-27.681958	 -0.508679	  0.006000	 -1.340642	  0.000000	 -9.093332	  0.000000
3.766000	  0.000000	  0.000000	  0.000000	  0.000000	  0.000000	  0.000000	  0.000000	  0.000000	  0.000000	  3.882470	453.758026	 40.105727	 -0.490422	  0.006000	 -1.071283	  0.000000	 13.452215	  0.000000	 -4.512306	479.712637	-27.713551	 -0.508626	  0.006000	 -1.340616	  0.000000	 -9.095215	  0.000000
3.766500	  0.000000	  0.000000	  0.000000	  0.000000	  0.000000	  0.000000	  0.000000	  0.000000	  0.000000	  3.885479	453.674578	 40.137761	 -0.490446	  0.006000	 -1.071294	  0.000000	 13.463758	  0.000000	 -4.563877	479.744866	-27.745825	 -0.508573	  0.006000	 -1.340589	  0.000000	 -9.097413	  0.000000
3.767000	  0.000000	  0.000000	  0.000000	  0.000000	  0.000000	  0.000000	  0.000000	  0.000000	  0.000000	  3.888396	453.592421	 40.169282	 -0.490470	  0.006000	 -1.071305	  0.000000	 13.475187	  0.000000	 -4.615223	479.776347	-27.778758	 -0.508520	  0.006000	 -1.340562	  0.000000	 -9.099919	  0.000000
3.767500	  0.000000	  0.000000	  0.000000	  0.000000	  0.000000	  0.000000	  0.000000	  0.000000	  0.000000	  3.891235	453.511555	 40.200300	 -0.490494	  0.006000	 -1.071316	  0.000000	 13.486505	  0.000000	 -4.666342	479.807100	-27.812321	 -0.508468	  0.006000	 -1.340535	  0.000000	 -9.102725	  0.000000
